{
	"asset":{
		"generator":"Khronos glTF Blender I/O v4.0.44",
		"version":"2.0"
	},
	"scene":0,
	"scenes":[
		{
			"name":"Scene",
			"nodes":[
				0
			]
		}
	],
	"nodes":[
		{
			"mesh":0,
			"name":"Plano.027",
			"rotation":[
				0.7061352729797363,
				-0.007940756157040596,
				-0.01465686783194542,
				0.7078806757926941
			],
			"scale":[
				0.5052123665809631,
				0.8003597855567932,
				0.5052068829536438
			],
			"translation":[
				0.0027840137481689453,
				4.043271541595459,
				0.02509176731109619
			]
		}
	],
	"materials":[
		{
			"doubleSided":true,
			"name":"Material.006",
			"pbrMetallicRoughness":{
				"baseColorTexture":{
					"index":0
				},
				"metallicFactor":0.25,
				"roughnessFactor":0
			}
		}
	],
	"meshes":[
		{
			"name":"Plano.031",
			"primitives":[
				{
					"attributes":{
						"POSITION":0,
						"NORMAL":1,
						"TEXCOORD_0":2,
						"TEXCOORD_1":3
					},
					"indices":4,
					"material":0
				}
			]
		}
	],
	"textures":[
		{
			"sampler":0,
			"source":0
		}
	],
	"images":[
		{
			"mimeType":"image/png",
			"name":"Token GTAVI",
			"uri":"Token%20GTAVI.png"
		}
	],
	"accessors":[
		{
			"bufferView":0,
			"componentType":5126,
			"count":5843,
			"max":[
				1.1481798887252808,
				0.12780168652534485,
				1.1481798887252808
			],
			"min":[
				-1.1481798887252808,
				-0.13258811831474304,
				-1.1481798887252808
			],
			"type":"VEC3"
		},
		{
			"bufferView":1,
			"componentType":5126,
			"count":5843,
			"type":"VEC3"
		},
		{
			"bufferView":2,
			"componentType":5126,
			"count":5843,
			"type":"VEC2"
		},
		{
			"bufferView":3,
			"componentType":5126,
			"count":5843,
			"type":"VEC2"
		},
		{
			"bufferView":4,
			"componentType":5123,
			"count":21264,
			"type":"SCALAR"
		}
	],
	"bufferViews":[
		{
			"buffer":0,
			"byteLength":70116,
			"byteOffset":0,
			"target":34962
		},
		{
			"buffer":0,
			"byteLength":70116,
			"byteOffset":70116,
			"target":34962
		},
		{
			"buffer":0,
			"byteLength":46744,
			"byteOffset":140232,
			"target":34962
		},
		{
			"buffer":0,
			"byteLength":46744,
			"byteOffset":186976,
			"target":34962
		},
		{
			"buffer":0,
			"byteLength":42528,
			"byteOffset":233720,
			"target":34963
		}
	],
	"samplers":[
		{
			"magFilter":9729,
			"minFilter":9987
		}
	],
	"buffers":[
		{
			"byteLength":276248,
			"uri":"Token_GTAVI.bin"
		}
	]
}
